<svg id="Layer_1" data-name="Layer 1" xmlns="http://www.w3.org/2000/svg" xmlns:xlink="http://www.w3.org/1999/xlink" viewBox="0 0 512 512"><defs><style>.cls-1{fill:url(#linear-gradient);}.cls-2{fill:url(#linear-gradient-2);}</style><linearGradient id="linear-gradient" x1="48.06" y1="256" x2="463.94" y2="256" gradientUnits="userSpaceOnUse"><stop offset="0.16" stop-color="#f96992"/><stop offset="1" stop-color="#f96992"/></linearGradient><linearGradient id="linear-gradient-2" x1="179.26" y1="336.59" x2="345.6" y2="336.59" xlink:href="#linear-gradient"/></defs><title>shopping-bag-outline</title><path class="cls-1" d="M463.79,443.52l-19.31-275.2a64.21,64.21,0,0,0-63.84-59.52H364.8a108.8,108.8,0,0,0-217.6,0H131.37a64.21,64.21,0,0,0-63.84,59.52L48.21,443.52A64,64,0,0,0,112.06,512H399.94a64,64,0,0,0,63.84-68.48ZM256,38.4a70.48,70.48,0,0,1,70.4,70.4H185.6A70.48,70.48,0,0,1,256,38.4ZM418.68,465.46a25.37,25.37,0,0,1-18.73,8.14H112.06a25.6,25.6,0,0,1-25.54-27.39L105.82,171a25.7,25.7,0,0,1,25.54-23.81H147.2v40.68a25.6,25.6,0,1,0,38.4,0V147.2H326.4v40.73a25.6,25.6,0,1,0,38.4-.12V147.2h15.83A25.7,25.7,0,0,1,406.18,171l19.31,275.2A25.36,25.36,0,0,1,418.68,465.46Z"/><path class="cls-2" d="M289.24,256h0a56,56,0,0,0-26.83,6.77,56.41,56.41,0,0,0-66.68,9.77,56.6,56.6,0,0,0,.2,80l66.49,64.63,66.48-64.63.21-.2A56.45,56.45,0,0,0,289.24,256ZM302,325.13l-39.6,38.49-39.52-38.41a18.09,18.09,0,0,1,0-25.55,17.94,17.94,0,0,1,25.41,0l14.1,14.1,14.11-14.12a17.84,17.84,0,0,1,12.71-5.28h0A18.06,18.06,0,0,1,302,325.13Z"/></svg>